<?xml version='1.0' encoding='utf-8'?>
<!DOCTYPE svg PUBLIC '-//W3C//DTD SVG 1.1//EN' 'http://www.w3.org/Graphics/SVG/1.1/DTD/svg11.dtd'>
<!-- Uploaded to: SVG Repo, www.svgrepo.com, Generator: SVG Repo Mixer Tools -->
<svg height="800px" width="800px" version="1.1" xmlns="http://www.w3.org/2000/svg" viewBox="0 0 512 512" xmlns:xlink="http://www.w3.org/1999/xlink" enable-background="new 0 0 512 512">
  <g>
    <g fill="#231F20">
      <path d="m346.1,45.3c-28.7-25.6-67.3-37.8-105.9-33.5-60.7,6.9-110.4,55.7-118.4,116.2-4.7,35.9 4.5,71.4 26.2,99.8 57,74.9 49.5,150.2 49.5,150.2 0,5.8 4.7,10.4 10.4,10.4h96.1c5.8,0 10.4-4.7 10.4-10.4 0,0-9.5-68.7 46.9-146.9 18-25 30-52 30-84.9 5.68434e-14-38.4-16.5-75.2-45.2-100.9zm-1,172.8c-32.1,39.8-50.3,91.2-51.5,148.1h-27.2v-166.4c0-5.8-4.7-10.4-10.4-10.4s-10.4,4.7-10.4,10.4v166.4h-27.2c0-52.3-18.6-104.5-53.7-150.9-18.2-24.1-26.1-54.1-22.1-84.5 6.7-51.1 48.8-92.4 100-98.2 33.2-3.7 65,6.3 89.6,28.3 24.3,21.7 38.3,52.8 38.3,85.4-5.68434e-14,26.5-8.8,51.3-25.4,71.8z"/>
      <path d="m340.1,416.8h-168.2c-5.8,0-10.4,4.7-10.4,10.4 0,5.8 4.7,10.4 10.4,10.4h11c5.1,35.8 35.9,63.4 73,63.4s68-27.6 73-63.4h11c5.8,0 10.4-4.7 10.4-10.4 0.2-5.8-4.5-10.4-10.2-10.4zm-84.1,63.3c-25.6,0-47.1-18.3-51.9-42.5h103.9c-4.9,24.2-26.4,42.5-52,42.5z"/>
    </g>
  </g>
</svg>