<svg xmlns="http://www.w3.org/2000/svg" viewBox="0 0 1024 1400" width="1024" height="1400"><defs>
<radialGradient id="room" cx="0.5" cy="0.42" r="0.75">
 <stop offset="0" stop-color="#1b1433"/><stop offset="0.6" stop-color="#0b0918"/><stop offset="1" stop-color="#05040b"/></radialGradient>
<radialGradient id="glow" cx="0.5" cy="0.5" r="0.5">
 <stop offset="0" stop-color="#4f7cff" stop-opacity="0.35"/><stop offset="1" stop-color="#4f7cff" stop-opacity="0"/></radialGradient>
<radialGradient id="catglow" cx="0.5" cy="0.5" r="0.5">
 <stop offset="0" stop-color="#fb923c" stop-opacity="0.55"/><stop offset="1" stop-color="#fb923c" stop-opacity="0"/></radialGradient>
<linearGradient id="bezel" x1="0" y1="0" x2="0" y2="1">
 <stop offset="0" stop-color="#2a2150"/><stop offset="1" stop-color="#140f2a"/></linearGradient>

<clipPath id="screen"><rect x="226" y="176" width="572" height="770" rx="22"/></clipPath>
</defs><rect width="1024" height="1400" fill="url(#room)"/><ellipse cx="512" cy="560" rx="470" ry="520" fill="url(#glow)"/><rect x="40" y="860" width="150" height="130" rx="6" fill="#141026" stroke="#221b3d" stroke-width="3"/><rect x="40" y="914.6" width="150" height="10" fill="#1c1633"/><rect x="60" y="740" width="120" height="120" rx="6" fill="#141026" stroke="#221b3d" stroke-width="3"/><rect x="60" y="790.4" width="120" height="10" fill="#1c1633"/><rect x="850" y="880" width="150" height="120" rx="6" fill="#141026" stroke="#221b3d" stroke-width="3"/><rect x="850" y="930.4" width="150" height="10" fill="#1c1633"/><rect x="870" y="770" width="110" height="110" rx="6" fill="#141026" stroke="#221b3d" stroke-width="3"/><rect x="870" y="816.2" width="110" height="10" fill="#1c1633"/><rect x="20" y="990" width="190" height="160" rx="6" fill="#141026" stroke="#221b3d" stroke-width="3"/><rect x="20" y="1057.2" width="190" height="10" fill="#1c1633"/><rect x="830" y="1000" width="190" height="150" rx="6" fill="#141026" stroke="#221b3d" stroke-width="3"/><rect x="830" y="1063.0" width="190" height="10" fill="#1c1633"/><rect x="176" y="34" width="672" height="1120" rx="30" fill="#0d0a1c"/><rect x="196" y="44" width="632" height="96" rx="16" fill="#1d1640"/><text x="512" y="112" text-anchor="middle" font-family="'Courier New',monospace" font-size="62" font-weight="700" fill="#fbbf24" letter-spacing="6">CATVENTURE</text><rect x="196" y="150" width="632" height="824" rx="34" fill="url(#bezel)"/><rect x="226" y="176" width="572" height="770" rx="22" fill="#000"/><g clip-path="url(#screen)"><text x="256" y="238" font-family="'Courier New',monospace" font-size="46" font-weight="700" fill="#fde68a">LEVEL 255</text><rect x="228.0" y="274.0" width="43.7" height="46.8" rx="6" fill="#1e40af"/><rect x="275.7" y="274.0" width="43.7" height="46.8" rx="6" fill="#1e40af"/><rect x="323.3" y="274.0" width="43.7" height="46.8" rx="6" fill="#1e40af"/><rect x="371.0" y="274.0" width="43.7" height="46.8" rx="6" fill="#1e40af"/><rect x="418.7" y="274.0" width="43.7" height="46.8" rx="6" fill="#1e40af"/><rect x="466.3" y="274.0" width="43.7" height="46.8" rx="6" fill="#1e40af"/><rect x="514.0" y="274.0" width="43.7" height="46.8" rx="6" fill="#1e40af"/><rect x="561.7" y="274.0" width="43.7" height="46.8" rx="6" fill="#1e40af"/><rect x="609.3" y="274.0" width="43.7" height="46.8" rx="6" fill="#1e40af"/><rect x="657.0" y="274.0" width="43.7" height="46.8" rx="6" fill="#1e40af"/><rect x="704.7" y="274.0" width="43.7" height="46.8" rx="6" fill="#1e40af"/><rect x="752.3" y="274.0" width="43.7" height="46.8" rx="6" fill="#1e40af"/><rect x="228.0" y="324.8" width="43.7" height="46.8" rx="6" fill="#1e40af"/><circle cx="297.5" cy="348.2" r="4.5" fill="#fef3c7"/><circle cx="440.5" cy="348.2" r="4.5" fill="#fef3c7"/><circle cx="583.5" cy="348.2" r="4.5" fill="#fef3c7"/><rect x="752.3" y="324.8" width="43.7" height="46.8" rx="6" fill="#1e40af"/><rect x="228.0" y="375.5" width="43.7" height="46.8" rx="6" fill="#1e40af"/><rect x="323.3" y="375.5" width="43.7" height="46.8" rx="6" fill="#1e40af"/><rect x="371.0" y="375.5" width="43.7" height="46.8" rx="6" fill="#1e40af"/><rect x="466.3" y="375.5" width="43.7" height="46.8" rx="6" fill="#1e40af"/><rect x="514.0" y="375.5" width="43.7" height="46.8" rx="6" fill="#1e40af"/><circle cx="583.5" cy="398.9" r="4.5" fill="#fef3c7"/><rect x="609.3" y="375.5" width="43.7" height="46.8" rx="6" fill="#1e40af"/><rect x="657.0" y="375.5" width="43.7" height="46.8" rx="6" fill="#1e40af"/><rect x="752.3" y="375.5" width="43.7" height="46.8" rx="6" fill="#1e40af"/><rect x="228.0" y="426.3" width="43.7" height="46.8" rx="6" fill="#1e40af"/><circle cx="583.5" cy="449.7" r="4.5" fill="#fef3c7"/><rect x="752.3" y="426.3" width="43.7" height="46.8" rx="6" fill="#1e40af"/><rect x="228.0" y="477.1" width="43.7" height="46.8" rx="6" fill="#1e40af"/><circle cx="297.5" cy="500.5" r="4.5" fill="#fef3c7"/><rect x="323.3" y="477.1" width="43.7" height="46.8" rx="6" fill="#1e40af"/><circle cx="392.8" cy="500.5" r="4.5" fill="#fef3c7"/><rect x="418.7" y="477.1" width="43.7" height="46.8" rx="6" fill="#1e40af"/><rect x="466.3" y="477.1" width="43.7" height="46.8" rx="6" fill="#1e40af"/><rect x="514.0" y="477.1" width="43.7" height="46.8" rx="6" fill="#1e40af"/><rect x="561.7" y="477.1" width="43.7" height="46.8" rx="6" fill="#1e40af"/><rect x="657.0" y="477.1" width="43.7" height="46.8" rx="6" fill="#1e40af"/><rect x="752.3" y="477.1" width="43.7" height="46.8" rx="6" fill="#1e40af"/><rect x="228.0" y="527.8" width="43.7" height="46.8" rx="6" fill="#1e40af"/><circle cx="297.5" cy="551.2" r="4.5" fill="#fef3c7"/><rect x="323.3" y="527.8" width="43.7" height="46.8" rx="6" fill="#1e40af"/><circle cx="535.8" cy="551.2" r="4.5" fill="#fef3c7"/><rect x="657.0" y="527.8" width="43.7" height="46.8" rx="6" fill="#1e40af"/><rect x="752.3" y="527.8" width="43.7" height="46.8" rx="6" fill="#1e40af"/><rect x="228.0" y="578.6" width="43.7" height="46.8" rx="6" fill="#1e40af"/><circle cx="297.5" cy="602.0" r="4.5" fill="#fef3c7"/><rect x="418.7" y="578.6" width="43.7" height="46.8" rx="6" fill="#1e40af"/><circle cx="535.8" cy="602.0" r="4.5" fill="#fef3c7"/><rect x="561.7" y="578.6" width="43.7" height="46.8" rx="6" fill="#1e40af"/><rect x="752.3" y="578.6" width="43.7" height="46.8" rx="6" fill="#1e40af"/><rect x="228.0" y="629.4" width="43.7" height="46.8" rx="6" fill="#1e40af"/><rect x="275.7" y="629.4" width="43.7" height="46.8" rx="6" fill="#1e40af"/><rect x="323.3" y="629.4" width="43.7" height="46.8" rx="6" fill="#1e40af"/><rect x="418.7" y="629.4" width="43.7" height="46.8" rx="6" fill="#1e40af"/><rect x="561.7" y="629.4" width="43.7" height="46.8" rx="6" fill="#1e40af"/><rect x="657.0" y="629.4" width="43.7" height="46.8" rx="6" fill="#1e40af"/><rect x="704.7" y="629.4" width="43.7" height="46.8" rx="6" fill="#1e40af"/><rect x="752.3" y="629.4" width="43.7" height="46.8" rx="6" fill="#1e40af"/><rect x="228.0" y="680.2" width="43.7" height="46.8" rx="6" fill="#1e40af"/><rect x="752.3" y="680.2" width="43.7" height="46.8" rx="6" fill="#1e40af"/><rect x="228.0" y="730.9" width="43.7" height="46.8" rx="6" fill="#1e40af"/><rect x="323.3" y="730.9" width="43.7" height="46.8" rx="6" fill="#1e40af"/><rect x="371.0" y="730.9" width="43.7" height="46.8" rx="6" fill="#1e40af"/><rect x="466.3" y="730.9" width="43.7" height="46.8" rx="6" fill="#1e40af"/><rect x="514.0" y="730.9" width="43.7" height="46.8" rx="6" fill="#1e40af"/><circle cx="583.5" cy="754.3" r="4.5" fill="#fef3c7"/><rect x="609.3" y="730.9" width="43.7" height="46.8" rx="6" fill="#1e40af"/><rect x="657.0" y="730.9" width="43.7" height="46.8" rx="6" fill="#1e40af"/><rect x="752.3" y="730.9" width="43.7" height="46.8" rx="6" fill="#1e40af"/><rect x="228.0" y="781.7" width="43.7" height="46.8" rx="6" fill="#1e40af"/><circle cx="297.5" cy="805.1" r="4.5" fill="#fef3c7"/><rect x="752.3" y="781.7" width="43.7" height="46.8" rx="6" fill="#1e40af"/><rect x="228.0" y="832.5" width="43.7" height="46.8" rx="6" fill="#1e40af"/><rect x="323.3" y="832.5" width="43.7" height="46.8" rx="6" fill="#1e40af"/><circle cx="535.8" cy="855.8" r="4.5" fill="#fef3c7"/><rect x="657.0" y="832.5" width="43.7" height="46.8" rx="6" fill="#1e40af"/><rect x="752.3" y="832.5" width="43.7" height="46.8" rx="6" fill="#1e40af"/><rect x="228.0" y="883.2" width="43.7" height="46.8" rx="6" fill="#1e40af"/><rect x="275.7" y="883.2" width="43.7" height="46.8" rx="6" fill="#1e40af"/><rect x="323.3" y="883.2" width="43.7" height="46.8" rx="6" fill="#1e40af"/><rect x="371.0" y="883.2" width="43.7" height="46.8" rx="6" fill="#1e40af"/><rect x="418.7" y="883.2" width="43.7" height="46.8" rx="6" fill="#1e40af"/><rect x="466.3" y="883.2" width="43.7" height="46.8" rx="6" fill="#1e40af"/><rect x="514.0" y="883.2" width="43.7" height="46.8" rx="6" fill="#1e40af"/><rect x="561.7" y="883.2" width="43.7" height="46.8" rx="6" fill="#1e40af"/><rect x="609.3" y="883.2" width="43.7" height="46.8" rx="6" fill="#1e40af"/><rect x="657.0" y="883.2" width="43.7" height="46.8" rx="6" fill="#1e40af"/><rect x="704.7" y="883.2" width="43.7" height="46.8" rx="6" fill="#1e40af"/><rect x="752.3" y="883.2" width="43.7" height="46.8" rx="6" fill="#1e40af"/><g transform="translate(498 703.6) scale(0.72) translate(-498 -714.3)"><ellipse cx="497.96666666666664" cy="714.2923076923076" rx="70" ry="62" fill="url(#catglow)"/><rect x="469.2" y="680.7" width="9.6" height="9.6" fill="#ff9933"/><rect x="517.2" y="680.7" width="9.6" height="9.6" fill="#ff9933"/><rect x="469.2" y="690.3" width="9.6" height="9.6" fill="#ff9933"/><rect x="478.8" y="690.3" width="9.6" height="9.6" fill="#ff9933"/><rect x="507.6" y="690.3" width="9.6" height="9.6" fill="#ff9933"/><rect x="517.2" y="690.3" width="9.6" height="9.6" fill="#ff9933"/><rect x="469.2" y="699.9" width="9.6" height="9.6" fill="#ff9933"/><rect x="478.8" y="699.9" width="9.6" height="9.6" fill="#ff9933"/><rect x="488.4" y="699.9" width="9.6" height="9.6" fill="#ff9933"/><rect x="498.0" y="699.9" width="9.6" height="9.6" fill="#ff9933"/><rect x="507.6" y="699.9" width="9.6" height="9.6" fill="#ff9933"/><rect x="517.2" y="699.9" width="9.6" height="9.6" fill="#ff9933"/><rect x="469.2" y="709.5" width="9.6" height="9.6" fill="#ff9933"/><rect x="488.4" y="709.5" width="9.6" height="9.6" fill="#ff9933"/><rect x="498.0" y="709.5" width="9.6" height="9.6" fill="#ff9933"/><rect x="517.2" y="709.5" width="9.6" height="9.6" fill="#ff9933"/><rect x="469.2" y="719.1" width="9.6" height="9.6" fill="#ff9933"/><rect x="478.8" y="719.1" width="9.6" height="9.6" fill="#ff9933"/><rect x="488.4" y="719.1" width="9.6" height="9.6" fill="#ff9933"/><rect x="498.0" y="719.1" width="9.6" height="9.6" fill="#ff9933"/><rect x="507.6" y="719.1" width="9.6" height="9.6" fill="#ff9933"/><rect x="517.2" y="719.1" width="9.6" height="9.6" fill="#ff9933"/><rect x="478.8" y="728.7" width="9.6" height="9.6" fill="#ff9933"/><rect x="507.6" y="728.7" width="9.6" height="9.6" fill="#ff9933"/><rect x="478.8" y="738.3" width="9.6" height="9.6" fill="#ff9933"/><rect x="488.4" y="738.3" width="9.6" height="9.6" fill="#ff9933"/><rect x="498.0" y="738.3" width="9.6" height="9.6" fill="#ff9933"/><rect x="507.6" y="738.3" width="9.6" height="9.6" fill="#ff9933"/></g><rect x="226" y="452" width="572" height="76" fill="#000" opacity="0.55"/><text x="512" y="510" text-anchor="middle" font-family="'Courier New',monospace" font-size="64" font-weight="700" fill="#fde68a" letter-spacing="8">READY?</text><rect x="226" y="176" width="572" height="1.4" fill="#000" opacity="0.28"/><rect x="226" y="181" width="572" height="1.4" fill="#000" opacity="0.28"/><rect x="226" y="186" width="572" height="1.4" fill="#000" opacity="0.28"/><rect x="226" y="191" width="572" height="1.4" fill="#000" opacity="0.28"/><rect x="226" y="196" width="572" height="1.4" fill="#000" opacity="0.28"/><rect x="226" y="201" width="572" height="1.4" fill="#000" opacity="0.28"/><rect x="226" y="206" width="572" height="1.4" fill="#000" opacity="0.28"/><rect x="226" y="211" width="572" height="1.4" fill="#000" opacity="0.28"/><rect x="226" y="216" width="572" height="1.4" fill="#000" opacity="0.28"/><rect x="226" y="221" width="572" height="1.4" fill="#000" opacity="0.28"/><rect x="226" y="226" width="572" height="1.4" fill="#000" opacity="0.28"/><rect x="226" y="231" width="572" height="1.4" fill="#000" opacity="0.28"/><rect x="226" y="236" width="572" height="1.4" fill="#000" opacity="0.28"/><rect x="226" y="241" width="572" height="1.4" fill="#000" opacity="0.28"/><rect x="226" y="246" width="572" height="1.4" fill="#000" opacity="0.28"/><rect x="226" y="251" width="572" height="1.4" fill="#000" opacity="0.28"/><rect x="226" y="256" width="572" height="1.4" fill="#000" opacity="0.28"/><rect x="226" y="261" width="572" height="1.4" fill="#000" opacity="0.28"/><rect x="226" y="266" width="572" height="1.4" fill="#000" opacity="0.28"/><rect x="226" y="271" width="572" height="1.4" fill="#000" opacity="0.28"/><rect x="226" y="276" width="572" height="1.4" fill="#000" opacity="0.28"/><rect x="226" y="281" width="572" height="1.4" fill="#000" opacity="0.28"/><rect x="226" y="286" width="572" height="1.4" fill="#000" opacity="0.28"/><rect x="226" y="291" width="572" height="1.4" fill="#000" opacity="0.28"/><rect x="226" y="296" width="572" height="1.4" fill="#000" opacity="0.28"/><rect x="226" y="301" width="572" height="1.4" fill="#000" opacity="0.28"/><rect x="226" y="306" width="572" height="1.4" fill="#000" opacity="0.28"/><rect x="226" y="311" width="572" height="1.4" fill="#000" opacity="0.28"/><rect x="226" y="316" width="572" height="1.4" fill="#000" opacity="0.28"/><rect x="226" y="321" width="572" height="1.4" fill="#000" opacity="0.28"/><rect x="226" y="326" width="572" height="1.4" fill="#000" opacity="0.28"/><rect x="226" y="331" width="572" height="1.4" fill="#000" opacity="0.28"/><rect x="226" y="336" width="572" height="1.4" fill="#000" opacity="0.28"/><rect x="226" y="341" width="572" height="1.4" fill="#000" opacity="0.28"/><rect x="226" y="346" width="572" height="1.4" fill="#000" opacity="0.28"/><rect x="226" y="351" width="572" height="1.4" fill="#000" opacity="0.28"/><rect x="226" y="356" width="572" height="1.4" fill="#000" opacity="0.28"/><rect x="226" y="361" width="572" height="1.4" fill="#000" opacity="0.28"/><rect x="226" y="366" width="572" height="1.4" fill="#000" opacity="0.28"/><rect x="226" y="371" width="572" height="1.4" fill="#000" opacity="0.28"/><rect x="226" y="376" width="572" height="1.4" fill="#000" opacity="0.28"/><rect x="226" y="381" width="572" height="1.4" fill="#000" opacity="0.28"/><rect x="226" y="386" width="572" height="1.4" fill="#000" opacity="0.28"/><rect x="226" y="391" width="572" height="1.4" fill="#000" opacity="0.28"/><rect x="226" y="396" width="572" height="1.4" fill="#000" opacity="0.28"/><rect x="226" y="401" width="572" height="1.4" fill="#000" opacity="0.28"/><rect x="226" y="406" width="572" height="1.4" fill="#000" opacity="0.28"/><rect x="226" y="411" width="572" height="1.4" fill="#000" opacity="0.28"/><rect x="226" y="416" width="572" height="1.4" fill="#000" opacity="0.28"/><rect x="226" y="421" width="572" height="1.4" fill="#000" opacity="0.28"/><rect x="226" y="426" width="572" height="1.4" fill="#000" opacity="0.28"/><rect x="226" y="431" width="572" height="1.4" fill="#000" opacity="0.28"/><rect x="226" y="436" width="572" height="1.4" fill="#000" opacity="0.28"/><rect x="226" y="441" width="572" height="1.4" fill="#000" opacity="0.28"/><rect x="226" y="446" width="572" height="1.4" fill="#000" opacity="0.28"/><rect x="226" y="451" width="572" height="1.4" fill="#000" opacity="0.28"/><rect x="226" y="456" width="572" height="1.4" fill="#000" opacity="0.28"/><rect x="226" y="461" width="572" height="1.4" fill="#000" opacity="0.28"/><rect x="226" y="466" width="572" height="1.4" fill="#000" opacity="0.28"/><rect x="226" y="471" width="572" height="1.4" fill="#000" opacity="0.28"/><rect x="226" y="476" width="572" height="1.4" fill="#000" opacity="0.28"/><rect x="226" y="481" width="572" height="1.4" fill="#000" opacity="0.28"/><rect x="226" y="486" width="572" height="1.4" fill="#000" opacity="0.28"/><rect x="226" y="491" width="572" height="1.4" fill="#000" opacity="0.28"/><rect x="226" y="496" width="572" height="1.4" fill="#000" opacity="0.28"/><rect x="226" y="501" width="572" height="1.4" fill="#000" opacity="0.28"/><rect x="226" y="506" width="572" height="1.4" fill="#000" opacity="0.28"/><rect x="226" y="511" width="572" height="1.4" fill="#000" opacity="0.28"/><rect x="226" y="516" width="572" height="1.4" fill="#000" opacity="0.28"/><rect x="226" y="521" width="572" height="1.4" fill="#000" opacity="0.28"/><rect x="226" y="526" width="572" height="1.4" fill="#000" opacity="0.28"/><rect x="226" y="531" width="572" height="1.4" fill="#000" opacity="0.28"/><rect x="226" y="536" width="572" height="1.4" fill="#000" opacity="0.28"/><rect x="226" y="541" width="572" height="1.4" fill="#000" opacity="0.28"/><rect x="226" y="546" width="572" height="1.4" fill="#000" opacity="0.28"/><rect x="226" y="551" width="572" height="1.4" fill="#000" opacity="0.28"/><rect x="226" y="556" width="572" height="1.4" fill="#000" opacity="0.28"/><rect x="226" y="561" width="572" height="1.4" fill="#000" opacity="0.28"/><rect x="226" y="566" width="572" height="1.4" fill="#000" opacity="0.28"/><rect x="226" y="571" width="572" height="1.4" fill="#000" opacity="0.28"/><rect x="226" y="576" width="572" height="1.4" fill="#000" opacity="0.28"/><rect x="226" y="581" width="572" height="1.4" fill="#000" opacity="0.28"/><rect x="226" y="586" width="572" height="1.4" fill="#000" opacity="0.28"/><rect x="226" y="591" width="572" height="1.4" fill="#000" opacity="0.28"/><rect x="226" y="596" width="572" height="1.4" fill="#000" opacity="0.28"/><rect x="226" y="601" width="572" height="1.4" fill="#000" opacity="0.28"/><rect x="226" y="606" width="572" height="1.4" fill="#000" opacity="0.28"/><rect x="226" y="611" width="572" height="1.4" fill="#000" opacity="0.28"/><rect x="226" y="616" width="572" height="1.4" fill="#000" opacity="0.28"/><rect x="226" y="621" width="572" height="1.4" fill="#000" opacity="0.28"/><rect x="226" y="626" width="572" height="1.4" fill="#000" opacity="0.28"/><rect x="226" y="631" width="572" height="1.4" fill="#000" opacity="0.28"/><rect x="226" y="636" width="572" height="1.4" fill="#000" opacity="0.28"/><rect x="226" y="641" width="572" height="1.4" fill="#000" opacity="0.28"/><rect x="226" y="646" width="572" height="1.4" fill="#000" opacity="0.28"/><rect x="226" y="651" width="572" height="1.4" fill="#000" opacity="0.28"/><rect x="226" y="656" width="572" height="1.4" fill="#000" opacity="0.28"/><rect x="226" y="661" width="572" height="1.4" fill="#000" opacity="0.28"/><rect x="226" y="666" width="572" height="1.4" fill="#000" opacity="0.28"/><rect x="226" y="671" width="572" height="1.4" fill="#000" opacity="0.28"/><rect x="226" y="676" width="572" height="1.4" fill="#000" opacity="0.28"/><rect x="226" y="681" width="572" height="1.4" fill="#000" opacity="0.28"/><rect x="226" y="686" width="572" height="1.4" fill="#000" opacity="0.28"/><rect x="226" y="691" width="572" height="1.4" fill="#000" opacity="0.28"/><rect x="226" y="696" width="572" height="1.4" fill="#000" opacity="0.28"/><rect x="226" y="701" width="572" height="1.4" fill="#000" opacity="0.28"/><rect x="226" y="706" width="572" height="1.4" fill="#000" opacity="0.28"/><rect x="226" y="711" width="572" height="1.4" fill="#000" opacity="0.28"/><rect x="226" y="716" width="572" height="1.4" fill="#000" opacity="0.28"/><rect x="226" y="721" width="572" height="1.4" fill="#000" opacity="0.28"/><rect x="226" y="726" width="572" height="1.4" fill="#000" opacity="0.28"/><rect x="226" y="731" width="572" height="1.4" fill="#000" opacity="0.28"/><rect x="226" y="736" width="572" height="1.4" fill="#000" opacity="0.28"/><rect x="226" y="741" width="572" height="1.4" fill="#000" opacity="0.28"/><rect x="226" y="746" width="572" height="1.4" fill="#000" opacity="0.28"/><rect x="226" y="751" width="572" height="1.4" fill="#000" opacity="0.28"/><rect x="226" y="756" width="572" height="1.4" fill="#000" opacity="0.28"/><rect x="226" y="761" width="572" height="1.4" fill="#000" opacity="0.28"/><rect x="226" y="766" width="572" height="1.4" fill="#000" opacity="0.28"/><rect x="226" y="771" width="572" height="1.4" fill="#000" opacity="0.28"/><rect x="226" y="776" width="572" height="1.4" fill="#000" opacity="0.28"/><rect x="226" y="781" width="572" height="1.4" fill="#000" opacity="0.28"/><rect x="226" y="786" width="572" height="1.4" fill="#000" opacity="0.28"/><rect x="226" y="791" width="572" height="1.4" fill="#000" opacity="0.28"/><rect x="226" y="796" width="572" height="1.4" fill="#000" opacity="0.28"/><rect x="226" y="801" width="572" height="1.4" fill="#000" opacity="0.28"/><rect x="226" y="806" width="572" height="1.4" fill="#000" opacity="0.28"/><rect x="226" y="811" width="572" height="1.4" fill="#000" opacity="0.28"/><rect x="226" y="816" width="572" height="1.4" fill="#000" opacity="0.28"/><rect x="226" y="821" width="572" height="1.4" fill="#000" opacity="0.28"/><rect x="226" y="826" width="572" height="1.4" fill="#000" opacity="0.28"/><rect x="226" y="831" width="572" height="1.4" fill="#000" opacity="0.28"/><rect x="226" y="836" width="572" height="1.4" fill="#000" opacity="0.28"/><rect x="226" y="841" width="572" height="1.4" fill="#000" opacity="0.28"/><rect x="226" y="846" width="572" height="1.4" fill="#000" opacity="0.28"/><rect x="226" y="851" width="572" height="1.4" fill="#000" opacity="0.28"/><rect x="226" y="856" width="572" height="1.4" fill="#000" opacity="0.28"/><rect x="226" y="861" width="572" height="1.4" fill="#000" opacity="0.28"/><rect x="226" y="866" width="572" height="1.4" fill="#000" opacity="0.28"/><rect x="226" y="871" width="572" height="1.4" fill="#000" opacity="0.28"/><rect x="226" y="876" width="572" height="1.4" fill="#000" opacity="0.28"/><rect x="226" y="881" width="572" height="1.4" fill="#000" opacity="0.28"/><rect x="226" y="886" width="572" height="1.4" fill="#000" opacity="0.28"/><rect x="226" y="891" width="572" height="1.4" fill="#000" opacity="0.28"/><rect x="226" y="896" width="572" height="1.4" fill="#000" opacity="0.28"/><rect x="226" y="901" width="572" height="1.4" fill="#000" opacity="0.28"/><rect x="226" y="906" width="572" height="1.4" fill="#000" opacity="0.28"/><rect x="226" y="911" width="572" height="1.4" fill="#000" opacity="0.28"/><rect x="226" y="916" width="572" height="1.4" fill="#000" opacity="0.28"/><rect x="226" y="921" width="572" height="1.4" fill="#000" opacity="0.28"/><rect x="226" y="926" width="572" height="1.4" fill="#000" opacity="0.28"/><rect x="226" y="931" width="572" height="1.4" fill="#000" opacity="0.28"/><rect x="226" y="936" width="572" height="1.4" fill="#000" opacity="0.28"/><rect x="226" y="941" width="572" height="1.4" fill="#000" opacity="0.28"/></g><rect x="226" y="176" width="572" height="770" rx="22" fill="none" stroke="#6d5ef5" stroke-opacity="0.35" stroke-width="3"/><path d="M246,196 L520,196 L360,520 L246,700 Z" fill="#ffffff" opacity="0.035"/><g transform="translate(690 146) rotate(6)"><rect x="-6" y="4" width="132" height="116" fill="#000" opacity="0.35"/><rect x="-10" y="0" width="132" height="116" fill="#fde047"/><rect x="26" y="-10" width="60" height="20" fill="#e5e7eb" opacity="0.75"/><text x="56" y="44" text-anchor="middle" font-family="'Comic Sans MS','Marker Felt',cursive" font-size="25" font-weight="700" fill="#1e1b4b">MY GAME</text><text x="56" y="74" text-anchor="middle" font-family="'Comic Sans MS','Marker Felt',cursive" font-size="14" font-weight="700" fill="#b91c1c">DO NOT TOUCH</text><text x="92" y="102" text-anchor="middle" font-family="'Comic Sans MS','Marker Felt',cursive" font-size="20" fill="#1e1b4b">— S</text></g><rect x="196" y="988" width="632" height="150" rx="18" fill="#171230"/><circle cx="330" cy="1062" r="30" fill="#dc2626"/><circle cx="330" cy="1062" r="12" fill="#7f1d1d"/><circle cx="640" cy="1050" r="22" fill="#fbbf24"/><circle cx="706" cy="1074" r="22" fill="#22d3ee"/></svg>